<?xml version="1.0" encoding="utf-8"?>
<!-- Generator: Adobe Illustrator 22.0.1, SVG Export Plug-In . SVG Version: 6.00 Build 0)  -->
<!DOCTYPE svg PUBLIC "-//W3C//DTD SVG 1.1//EN" "http://www.w3.org/Graphics/SVG/1.1/DTD/svg11.dtd">
<svg version="1.1" id="Capa_1" xmlns="http://www.w3.org/2000/svg" xmlns:xlink="http://www.w3.org/1999/xlink" x="0px" y="0px"
	 viewBox="0 0 512 512" enable-background="new 0 0 512 512" xml:space="preserve">
<g>
	<path fill="#FFFFFF" d="M288,0H37C16.6,0,0,16.6,0,37v438c0,20.4,16.6,37,37,37h251c49.6,0,90-40.4,90-90v-54V160V90
		C378,40.4,337.6,0,288,0z M37,20h153v163.7c0,5.5,4.5,10,10,10s10-4.5,10-10V20h36v418h-36V272.5c0-5.5-4.5-10-10-10s-10,4.5-10,10
		V438H75.2H37c-6.1,0-11.9,1.5-17,4.2V37C20,27.6,27.6,20,37,20z M288,492H37c-9.4,0-17-7.6-17-17s7.6-17,17-17h38.2H288
		c28.2,0,53.4-13,69.9-33.4C356.6,462,325.7,492,288,492z M358,160v208c0,38.6-31.4,70-70,70h-22V20h22c38.6,0,70,31.4,70,70V160z"
		/>
	<path fill="#FFFFFF" d="M458,245.5c-5.5,0-10,4.5-10,10v0.2c0,5.5,4.5,10,10,10s10-4.5,10-10v-0.2C468,250,463.5,245.5,458,245.5z"
		/>
	<path fill="#FFFFFF" d="M479.4,0h-43c-18,0-32.6,14.6-32.6,32.6v392c0,1.7,0.5,3.4,1.3,5l44.1,77.4c1.8,3.1,5.1,5,8.7,5
		s6.9-1.9,8.7-5l44.1-77.4c0.9-1.5,1.3-3.2,1.3-5v-392C512,14.6,497.4,0,479.4,0z M468,414.6V293.9c0-5.5-4.5-10-10-10
		s-10,4.5-10,10v120.7h-24.3V89.2H448V218c0,5.5,4.5,10,10,10s10-4.5,10-10V89.2h24v325.5h-24V414.6z M436.4,20h43
		c7,0,12.6,5.7,12.6,12.6v36.5h-68.3V32.6C423.7,25.7,429.4,20,436.4,20z M457.9,481.8L431,434.6h53.8"/>
	<path fill="#FFFFFF" d="M200,239c2.6,0,5.2-1.1,7.1-2.9c1.9-1.9,2.9-4.4,2.9-7.1s-1.1-5.2-2.9-7.1c-1.9-1.9-4.4-2.9-7.1-2.9
		s-5.2,1.1-7.1,2.9c-1.9,1.9-2.9,4.4-2.9,7.1s1.1,5.2,2.9,7.1S197.4,239,200,239z"/>
</g>
</svg>
