<?xml version="1.0" encoding="utf-8"?>
<!-- Generator: Adobe Illustrator 22.0.1, SVG Export Plug-In . SVG Version: 6.00 Build 0)  -->
<!DOCTYPE svg PUBLIC "-//W3C//DTD SVG 1.1//EN" "http://www.w3.org/Graphics/SVG/1.1/DTD/svg11.dtd">
<svg version="1.1" id="Capa_1" xmlns="http://www.w3.org/2000/svg" xmlns:xlink="http://www.w3.org/1999/xlink" x="0px" y="0px"
	 viewBox="0 0 512 512" enable-background="new 0 0 512 512" xml:space="preserve">
<path fill="#FFFFFF" d="M390,447v-30.7c0-24.6-14.8-45.7-35.9-55.1l1.4-1c19.1-13.7,30.5-35.9,30.5-59.4V194.2
	c0-23.5-11.4-45.7-30.5-59.4l-19.4-13.9c0,0,0,0-0.1,0V80c0-44.1-35.9-80-80-80s-80,35.9-80,80v40.8c0,0,0,0-0.1,0l-19.4,13.9
	c-19.1,13.7-30.5,35.9-30.5,59.4v106.7c0,23.5,11.4,45.7,30.5,59.4l1.4,1c-21.1,9.4-35.9,30.6-35.9,55.1V447
	c-11.8,5.3-20,17.2-20,31c0,18.7,15.3,34,34,34h240c18.7,0,34-15.3,34-34C410,464.2,401.8,452.4,390,447z M256,20
	c33.1,0,60,26.9,60,60v39H196V99h48.7c5.5,0,10-4.5,10-10s-4.5-10-10-10H196C196.6,46.4,223.3,20,256,20z M146,300.8V194.2
	c0-17.1,8.3-33.2,22.1-43.1L185,139h142l16.8,12.1c13.9,9.9,22.1,26,22.1,43.1v106.7c0,17.1-8.3,33.2-22.1,43.1L327,356h-22.9
	c12.2-12.3,19.8-29.2,19.8-47.9c0-0.7,0-1.3,0-1.9c-0.6-31.9-17.2-59.8-31-77.7c-7.9-10.2-15.6-18-20.6-22.8
	C261,195,259.1,195,256,195c-3.2,0-4.8,0-16.1,10.7c-5.1,4.8-12.8,12.7-20.6,22.8c-13.9,17.9-30.6,45.9-31.2,77.6c0,0.7,0,1.3,0,2
	c0,18.7,7.6,35.6,19.8,47.9H185l-16.8-12.1C154.3,334,146,317.9,146,300.8z M291.9,339.8c0-0.2,0-0.4,0-0.6
	c-0.2-12.5-5.4-25.6-15-38c-3.7-4.8-7.4-8.6-9.8-10.8c-4.6-4.4-7.1-6.3-11.1-6.3c-4.2,0-6.7,2.2-11,6.3c-2.4,2.3-6,6-9.8,10.8
	c-9.6,12.4-14.9,25.6-15.1,37.9c0,0.2,0,0.5,0,0.7c-7.5-8.5-12-19.5-12-31.7c0-0.5,0-0.9,0-1.5c0.8-39.5,33.3-75.4,47.9-88.7
	c5.5,5,14.2,13.7,22.8,25.3c11.1,14.9,24.5,38,25,63.5c0,0.5,0,0.9,0,1.4C303.9,320.2,299.4,331.3,291.9,339.8z M240.1,340.1
	c0-0.2,0-0.3,0-0.6c0.3-13.3,9.6-25.3,15.9-31.9c6.3,6.6,15.6,18.7,15.9,32c0,0.2,0,0.3,0,0.5c0,8.8-7.1,15.9-15.9,15.9
	S240.1,348.9,240.1,340.1z M376,492H136c-7.7,0-14-6.3-14-14s6.3-14,14-14h73.5c5.5,0,10-4.5,10-10s-4.5-10-10-10H142v-27.7
	c0-22.2,18.1-40.3,40.3-40.3h147.3c22.2,0,40.3,18.1,40.3,40.3V444h-67c-5.5,0-10,4.5-10,10s4.5,10,10,10h73c7.7,0,14,6.3,14,14
	S383.7,492,376,492z"/>
<path fill="#FFFFFF" d="M256,444c-2.6,0-5.2,1.1-7.1,2.9c-1.9,1.9-2.9,4.4-2.9,7.1s1.1,5.2,2.9,7.1c1.9,1.9,4.4,2.9,7.1,2.9
	s5.2-1.1,7.1-2.9c1.9-1.9,2.9-4.4,2.9-7.1s-1.1-5.2-2.9-7.1S258.6,444,256,444z"/>
<path fill="#FFFFFF" d="M285.3,99c2.6,0,5.2-1.1,7.1-2.9c1.9-1.9,2.9-4.4,2.9-7.1s-1.1-5.2-2.9-7.1c-1.9-1.9-4.4-2.9-7.1-2.9
	c-2.6,0-5.2,1.1-7.1,2.9c-1.9,1.9-2.9,4.4-2.9,7.1s1.1,5.2,2.9,7.1S282.7,99,285.3,99z"/>
<path fill="#FFFFFF" d="M502,246h-50.7c-5.5,0-10,4.5-10,10s4.5,10,10,10H502c5.5,0,10-4.5,10-10S507.5,246,502,246z"/>
<path fill="#FFFFFF" d="M434.4,209.1c2.6,0,5.1-1,7.1-2.9l17.7-17.8c3.9-3.9,3.9-10.2,0-14.1c-3.9-3.9-10.2-3.9-14.1,0L427.3,192
	c-3.9,3.9-3.9,10.2,0,14.1C429.2,208.1,431.8,209.1,434.4,209.1z"/>
<path fill="#FFFFFF" d="M441.5,306c-3.9-3.9-10.2-3.9-14.1,0s-3.9,10.2,0,14.1l17.6,17.6c2,2,4.5,2.9,7.1,2.9s5.1-1,7.1-2.9
	c3.9-3.9,3.9-10.2,0-14.1L441.5,306z"/>
<path fill="#FFFFFF" d="M70.7,256c0-5.5-4.5-10-10-10H10c-5.5,0-10,4.5-10,10s4.5,10,10,10h50.7C66.2,266,70.7,261.5,70.7,256z"/>
<path fill="#FFFFFF" d="M70.6,305.9l-17.7,17.8c-3.9,3.9-3.9,10.2,0,14.1c2,2,4.5,2.9,7.1,2.9s5.1-1,7.1-2.9L84.7,320
	c3.9-3.9,3.9-10.2,0-14.1C80.8,302,74.5,302,70.6,305.9z"/>
<path fill="#FFFFFF" d="M70.5,206c2,1.9,4.5,2.9,7.1,2.9s5.1-1,7.1-2.9c3.9-3.9,3.9-10.2,0-14.1L67,174.2c-3.9-3.9-10.2-3.9-14.1,0
	s-3.9,10.2,0,14.1L70.5,206z"/>
</svg>
