<?xml version="1.0" encoding="utf-8"?>
<!-- Generator: Adobe Illustrator 22.0.1, SVG Export Plug-In . SVG Version: 6.00 Build 0)  -->
<!DOCTYPE svg PUBLIC "-//W3C//DTD SVG 1.1//EN" "http://www.w3.org/Graphics/SVG/1.1/DTD/svg11.dtd">
<svg version="1.1" id="Capa_1" xmlns="http://www.w3.org/2000/svg" xmlns:xlink="http://www.w3.org/1999/xlink" x="0px" y="0px"
	 viewBox="0 0 512 512" enable-background="new 0 0 512 512" xml:space="preserve">
<g>
	<path fill="#FFFFFF" d="M120.5,119.9c-0.1,0.1-0.2,0.2-0.3,0.3"/>
</g>
<path fill="#FFFFFF" d="M471.7,118.1c-3-4.7-9.2-6-13.8-3c-4.6,3-6,9.2-3,13.8C479.2,166.8,492,210.7,492,256
	c0,130.1-105.9,236-236,236S20,386.1,20,256S125.9,20,256,20c43.3,0,85.6,11.8,122.4,34.2c4.7,2.9,10.9,1.4,13.7-3.4
	s1.4-10.9-3.4-13.7C348.8,12.8,302.9,0,256,0C187.6,0,123.3,26.6,75,75C26.6,123.3,0,187.6,0,256s26.6,132.7,75,181
	c48.4,48.4,112.6,75,181,75s132.7-26.6,181-75c48.4-48.4,75-112.6,75-181C512,206.9,498.1,159.2,471.7,118.1z"/>
<path fill="#FFFFFF" d="M423,89.2c2,2,4.5,2.9,7.1,2.9s5.1-1,7.1-2.9c3.9-3.9,3.9-10.2,0-14.1L437,75c-3.9-3.9-10.2-3.9-14.1,0
	s-3.9,10.2,0,14.1L423,89.2z"/>
<path fill="#FFFFFF" d="M143,88.5c-4.6,3.1-5.8,9.3-2.7,13.9s9.3,5.8,13.9,2.7c72-48.7,168.9-39.3,230.5,22.2
	c67.1,67.1,70.7,174.1,10.9,245.5c-0.1-0.1-0.1-0.2-0.2-0.4l-26.1-45.3c-23.7-41-66-65.4-113.3-65.4s-89.7,24.5-113.3,65.4
	l-26.1,45.3c0,0.1-0.1,0.2-0.1,0.2C66,312.3,59.8,224.3,103,157.4c3-4.6,1.7-10.8-3-13.8c-4.6-3-10.8-1.7-13.8,3
	C61.5,184.8,50.4,230.8,55,276.3c4.6,46.1,25.3,89.6,58.1,122.5c39.4,39.4,91.1,59.1,142.8,59.1s103.5-19.7,142.8-59.1
	c78.8-78.8,78.8-206.9,0-285.7C330.5,44.8,222.9,34.5,143,88.5z M130.7,388c0.8-1.6,1.7-3.2,3.1-5.6l26.1-45.3
	c20-34.7,55.9-55.4,96-55.4s76,20.7,96,55.4l26.1,45.3c1.4,2.5,2.3,4,3.1,5.7C311.1,454.5,200.7,454.5,130.7,388z"/>
<path fill="#FFFFFF" d="M127.3,127.3l0.3-0.3c3.9-3.9,3.9-10.2,0-14.1c-3.9-3.9-10.2-3.9-14.1,0l-0.3,0.3c-3.9,3.9-3.9,10.2,0,14.1
	c2,2,4.5,2.9,7.1,2.9C122.8,130.2,125.3,129.3,127.3,127.3z"/>
<path fill="#FFFFFF" d="M280.8,255.9c3.5,0.9,7,1.4,10.4,1.4c17.7,0,34-11.9,38.8-29.8c0.1-0.4,0.2-0.7,0.3-1
	c2.8-11.3,2-23.8-2.2-37.2c-3.5-11.1-12.3-19.5-23.5-22.5s-23-0.1-31.5,7.8c-10.3,9.5-17.1,19.9-20.3,31c-0.1,0.4-0.2,0.8-0.3,1.1
	C246.6,228.1,259.4,250.2,280.8,255.9z M271.7,211.9L271.7,211.9c0.1-0.2,0.1-0.4,0.2-0.7c2.2-7.6,7.1-15,14.7-21.9
	c2.6-2.4,5.8-3.7,9.2-3.7c1.2,0,2.4,0.2,3.6,0.5c4.6,1.2,8.1,4.6,9.6,9.2c3.1,9.8,3.7,18.7,1.8,26.5c0,0.2-0.1,0.4-0.1,0.6
	c-2.9,10.7-14,17.1-24.7,14.3C275.2,233.7,268.8,222.7,271.7,211.9z"/>
<path fill="#FFFFFF" d="M357.7,290.2c6.2,3.6,13,5.4,20,5.4c3.5,0,7-0.5,10.5-1.4c10.4-2.8,19-9.4,24.4-18.7
	c0.2-0.3,0.4-0.7,0.5-0.9c5.6-10.2,8.1-22.5,7.5-36.5c-0.5-11.6-6.8-22-16.9-27.8s-22.2-6-32.5-0.6c-12.3,6.5-21.6,14.8-27.6,24.6
	c-0.2,0.3-0.4,0.7-0.6,1c-5.4,9.3-6.8,20.1-4,30.5C341.8,276.2,348.5,284.8,357.7,290.2z M360.4,245.3L360.4,245.3
	c0.1-0.2,0.2-0.3,0.4-0.6c4.1-6.8,10.7-12.6,19.8-17.4c2-1.1,4.2-1.6,6.4-1.6c2.3,0,4.7,0.6,6.8,1.9c4.2,2.4,6.7,6.5,6.9,11.3
	c0.5,10.3-1.2,19-5.1,26c-0.1,0.2-0.2,0.3-0.3,0.5c-5.6,9.6-17.9,12.9-27.5,7.4c-4.7-2.7-8-7-9.4-12.2
	C357,255.4,357.7,250,360.4,245.3z"/>
<path fill="#FFFFFF" d="M94.8,241c-3.2,10.3-3.7,19.9-1.6,28.6c0.1,0.3,0.1,0.6,0.2,0.9l0,0c3.9,14.4,16.9,23.9,31.1,23.9
	c2.8,0,5.5-0.4,8.3-1.1c8.3-2.2,15.3-7.6,19.6-15s5.4-16.1,3.2-24.4c-0.1-0.3-0.2-0.6-0.2-0.8c-2.5-8.7-7.8-16.8-15.9-24.1
	c-7-6.4-16.6-8.7-25.7-6.3C104.7,225.1,97.6,232,94.8,241z M113.9,247c1.1-3.5,4-4.7,5.2-5s4.3-0.8,7,1.7c5.2,4.8,8.7,9.8,10.2,15
	c0,0.1,0.1,0.2,0.1,0.3c0.8,3.1,0.4,6.4-1.2,9.3c-1.6,2.8-4.3,4.8-7.4,5.7c-6.5,1.7-13.2-2.1-14.9-8.6c0-0.1-0.1-0.2-0.1-0.4
	C111.4,259.7,111.8,253.7,113.9,247z"/>
<path fill="#FFFFFF" d="M199,260.7c20.2,0,36.7-16.5,36.7-36.7c0-0.4,0-0.7,0-1c-0.2-10.5-3.8-21.2-10.6-31.9
	c-5.7-9-15.5-14.3-26.1-14.3h-0.1c-10.7,0-20.4,5.4-26.1,14.4c-6.7,10.6-10.2,21.3-10.4,31.7c0,0.3,0,0.7,0,1
	C162.3,244.2,178.8,260.7,199,260.7z M182.3,223.5v-0.1c0.1-6.8,2.6-14,7.3-21.5c2.1-3.2,5.4-5.1,9.3-5.1l0,0c3.8,0,7.2,1.9,9.3,5.1
	c4.8,7.5,7.3,14.8,7.4,21.6c0,0.2,0,0.3,0,0.5c0,9.2-7.5,16.7-16.7,16.7s-16.7-7.5-16.7-16.7C182.3,223.8,182.3,223.7,182.3,223.5z"
	/>
</svg>
