<?xml version="1.0" encoding="utf-8"?>
<!-- Generator: Adobe Illustrator 22.0.1, SVG Export Plug-In . SVG Version: 6.00 Build 0)  -->
<!DOCTYPE svg PUBLIC "-//W3C//DTD SVG 1.1//EN" "http://www.w3.org/Graphics/SVG/1.1/DTD/svg11.dtd">
<svg version="1.1" id="Capa_1" xmlns="http://www.w3.org/2000/svg" xmlns:xlink="http://www.w3.org/1999/xlink" x="0px" y="0px"
	 viewBox="0 0 512 512" style="enable-background:new 0 0 512 512;" xml:space="preserve">
<style type="text/css">
	.st0{fill:#FFFFFF;}
</style>
<path class="st0" d="M502,126.6c-2.6,0-5.2-1.1-7.1-2.9s-2.9-4.4-2.9-7.1s1.1-5.2,2.9-7.1s4.4-2.9,7.1-2.9s5.2,1.1,7.1,2.9
	c1.9,1.9,2.9,4.4,2.9,7.1s-1.1,5.2-2.9,7.1C507.2,125.5,504.6,126.6,502,126.6z"/>
<path class="st0" d="M464.5,126.6H281c-5.5,0-10-4.5-10-10c0-29,23.6-52.7,52.7-52.7c5.3,0,10.5,0.8,15.5,2.3
	c12.1-23.9,36.6-39.3,64-39.3c28.5,0,54.3,16.9,65.7,43c2.2,5.1-0.1,11-5.1,13.2c-5.1,2.2-11-0.1-13.2-5.1
	c-8.3-18.8-26.9-31-47.4-31C380.7,47,361,61.3,354,82.5c-0.9,2.8-3.1,5.1-5.9,6.2s-5.9,0.9-8.5-0.6c-4.8-2.7-10.4-4.1-15.9-4.1
	c-14.5,0-26.9,9.5-31.1,22.7h171.9c5.5,0,10,4.5,10,10S470,126.6,464.5,126.6z"/>
<path class="st0" d="M378.5,370.5h-100c-3.8,0-7.2-2.1-8.9-5.5l-39-77.4c-1.6-3.1-1.4-6.8,0.4-9.7c1.8-3,5-4.8,8.5-4.8h100
	c3.8,0,7.2,2.1,8.9,5.5l39,77.4c1.6,3.1,1.4,6.8-0.4,9.7C385.2,368.7,382,370.5,378.5,370.5z M284.7,350.5h77.6L333.4,293h-77.6
	L284.7,350.5z"/>
<path class="st0" d="M309,438c-2.6,0-5.2-1.1-7.1-2.9c-1.9-1.9-2.9-4.4-2.9-7.1c0-2.6,1.1-5.2,2.9-7.1c1.9-1.9,4.4-2.9,7.1-2.9
	c2.6,0,5.2,1.1,7.1,2.9c1.9,1.9,2.9,4.4,2.9,7.1c0,2.6-1.1,5.2-2.9,7.1C314.2,436.9,311.7,438,309,438z"/>
<path class="st0" d="M111.4,103.9c-3,0-5.9-1.4-7.8-3.7c-3.7-4.6-9.2-7.2-15.1-7.2c-5.5,0-10-4.5-10-10s4.5-10,10-10
	c8.3,0,16.3,2.6,22.9,7.3C118,75.6,126,73,134.3,73c5.5,0,10,4.5,10,10s-4.5,10-10,10c-5.9,0-11.4,2.6-15.1,7.2
	C117.3,102.6,114.5,103.9,111.4,103.9z"/>
<path class="st0" d="M224.4,71.6c-3,0-5.9-1.4-7.8-3.7c-3.7-4.6-9.2-7.2-15.1-7.2c-5.5,0-10-4.5-10-10s4.5-10,10-10
	c8.3,0,16.3,2.6,22.9,7.3c6.6-4.7,14.6-7.3,22.9-7.3c5.5,0,10,4.5,10,10s-4.5,10-10,10c-5.9,0-11.4,2.6-15.1,7.2
	C230.3,70.2,227.4,71.6,224.4,71.6z"/>
<path class="st0" d="M182,149.9c-3,0-5.9-1.4-7.8-3.7c-2.9-3.6-7.1-5.6-11.7-5.6c-5.5,0-10-4.5-10-10s4.5-10,10-10
	c7,0,13.8,2.1,19.5,5.9c5.7-3.8,12.4-5.9,19.5-5.9c5.5,0,10,4.5,10,10s-4.5,10-10,10c-4.5,0-8.8,2-11.7,5.6
	C187.9,148.5,185.1,149.9,182,149.9z"/>
<path class="st0" d="M510.9,470.5L378,206.5c-1.7-3.4-5.2-5.5-8.9-5.5H142.9c-3.5,0-6.7,1.8-8.5,4.8c-0.1,0.1-0.2,0.3-0.2,0.4
	c-0.1,0.1-0.1,0.2-0.2,0.3l-16.6,33c-0.1,0-0.2,0-0.4,0H21.8c4.1-10.8,14.5-18.5,26.7-18.5c4.9,0,9.7,1.3,13.9,3.6
	c2.6,1.5,5.7,1.7,8.5,0.6c2.8-1.1,4.9-3.3,5.9-6.2c6.2-18.8,23.7-31.4,43.5-31.4c5.5,0,10-4.5,10-10s-4.5-10-10-10
	c-24.8,0-47.1,13.8-58.3,35.3c-4.4-1.3-8.9-1.9-13.5-1.9C21.8,201,0,222.8,0,249.5c0,5.5,4.5,10,10,10h97.3L1.1,470.5
	c-1.6,3.1-1.4,6.8,0.4,9.7c1.8,3,5,4.8,8.5,4.8h492c3.5,0,6.7-1.8,8.5-4.8S512.5,473.6,510.9,470.5z M152.9,253.1l45.6,90.5h-45.6
	V253.1z M26.2,465l106.7-211.9v98.1L75.7,465H26.2z M98.1,465l44.9-89.2l44.9,89.2H98.1z M204.6,453.9l-45.5-90.3h45.5V453.9z
	 M224.6,465v-69.6l35,69.6H224.6L224.6,465z M282.1,465L159.2,221h203.7l99.2,197H345c-5.5,0-10,4.5-10,10s4.5,10,10,10h127.2
	l13.6,27H282.1z"/>
</svg>
